# xmcd
#
# Track frame offsets: 
#        150
#        15295
#        29207
#        44795
#        61497
#        78362
#        92502
#        108130
#        123110
#        139192
#        151945
#
# Disc length: 2214 seconds
#
# Revision: 2
# Processed by: cddbd v1.4PL0 Copyright (c) Steve Scherf et al.
# Submitted via: ExactAudioCopy v0.90b2
#
DISCID=8608a40b
DTITLE=Janie Frickie - Janie Frickie
DYEAR=1900
DGENRE=Country
TTITLE0=You Never Crossed My Mind
TTITLE1=Independence Day
TTITLE2=What Do I Do (With All This Love)
TTITLE3=Humbling Love
TTITLE4=Greater Than Love
TTITLE5=Love Letters
TTITLE6=I Want To Grow Old With You
TTITLE7=I Know A Good Love (When I Lose One)
TTITLE8=Old Feeling 'Bout A New Love
TTITLE9=I'd Like To Know How You Got The Know-How
TTITLE10=Finishing Touch
EXTD=
EXTT0=
EXTT1=
EXTT2=
EXTT3=
EXTT4=
EXTT5=
EXTT6=
EXTT7=
EXTT8=
EXTT9=
EXTT10=
PLAYORDER=
